<?xml version="1.0" standalone="no"?><!DOCTYPE svg PUBLIC "-//W3C//DTD SVG 1.1//EN" "http://www.w3.org/Graphics/SVG/1.1/DTD/svg11.dtd"><svg t="1631256185959" class="icon" viewBox="0 0 1024 1024" version="1.1" xmlns="http://www.w3.org/2000/svg" p-id="2475" xmlns:xlink="http://www.w3.org/1999/xlink" width="200" height="200"><defs><style type="text/css"></style></defs><path d="M420.437333 913.322667l198.826667-198.912 5.205333-5.205334a218.282667 218.282667 0 0 0-27.306666-322.730666l-50.090667 64.768c4.437333 3.413333 7.253333 5.376 14.336 12.458666 52.906667 52.906667 53.162667 138.410667 1.024 191.658667l-198.314667 198.314667h-0.085333A93.525333 93.525333 0 0 1 172.373333 660.053333l-0.170666-0.170666L268.202667 564.053333l-57.941334-57.856L111.786667 604.586667l-0.682667 0.682666-1.194667 1.194667a218.282667 218.282667 0 0 0 308.565334 308.650667l1.194666-1.28a3.072 3.072 0 0 0 0.768-0.512z" fill="#4063DF" p-id="2476"></path><path d="M480.768 578.304c-3.925333-3.328-11.264-9.130667-18.176-15.872a136.362667 136.362667 0 0 1 4.608-197.12l-0.085333-0.085333 198.144-198.229334a136.277333 136.277333 0 0 1 192 193.536L757.76 459.946667l57.941333 57.856 98.474667-98.474667 5.205333-5.205333a218.282667 218.282667 0 0 0-308.565333-308.565334L406.613333 309.76l-0.682666 0.768-1.194667 1.194667a218.282667 218.282667 0 0 0 21.077333 327.168l54.954667-60.586667zM197.632 539.050667a40.96 40.96 0 1 0 81.493333-6.4 40.96 40.96 0 0 0-81.493333 6.4z" fill="#4063DF" p-id="2477"></path><path d="M532.138667 422.485333a40.96 40.96 0 1 0 81.493333-6.4 40.96 40.96 0 0 0-81.493333 6.4zM411.648 610.986667a40.96 40.96 0 1 0 81.493333-6.4 40.96 40.96 0 0 0-81.493333 6.4zM745.984 492.202667a40.96 40.96 0 1 0 81.578667-6.4 40.96 40.96 0 0 0-81.578667 6.4z" fill="#4063DF" p-id="2478"></path></svg>