<?xml version="1.0" standalone="no"?><!DOCTYPE svg PUBLIC "-//W3C//DTD SVG 1.1//EN" "http://www.w3.org/Graphics/SVG/1.1/DTD/svg11.dtd"><svg t="1631612550574" class="icon" viewBox="0 0 1024 1024" version="1.1" xmlns="http://www.w3.org/2000/svg" p-id="2697" xmlns:xlink="http://www.w3.org/1999/xlink" width="200" height="200"><defs><style type="text/css"></style></defs><path d="M859.306667 56.888889H164.693333A107.804444 107.804444 0 0 0 56.888889 164.693333v694.613334A107.804444 107.804444 0 0 0 164.693333 967.111111h694.613334A107.804444 107.804444 0 0 0 967.111111 859.306667V164.693333A107.804444 107.804444 0 0 0 859.306667 56.888889zM164.693333 113.777778h694.613334c28.103111 0 50.915556 22.812444 50.915555 50.915555v694.613334A50.915556 50.915556 0 0 1 859.306667 910.222222H164.693333A50.915556 50.915556 0 0 1 113.777778 859.306667V164.693333C113.777778 136.590222 136.590222 113.777778 164.693333 113.777778z" fill="#00EBFC" p-id="2698"></path><path d="M526.222222 737.365333c-22.101333 0-39.992889-17.92-39.992889-39.992889v-372.906666a39.992889 39.992889 0 0 1 79.985778 0v372.906666c0 22.101333-17.92 39.992889-39.992889 39.992889z m173.340445 0.056889c-22.101333 0-40.021333-17.92-40.021334-39.992889v-262.4a39.992889 39.992889 0 0 1 80.014223 0v262.4c0 22.072889-17.92 39.992889-39.992889 39.992889z m-346.680889 0c-22.072889 0-39.992889-17.92-39.992889-40.021333v-162.190222a39.992889 39.992889 0 0 1 80.014222 0v162.190222c0 22.101333-17.92 40.021333-40.021333 40.021333z" fill="#00EBFC" p-id="2699"></path></svg>