<?xml version="1.0" standalone="no"?><!DOCTYPE svg PUBLIC "-//W3C//DTD SVG 1.1//EN" "http://www.w3.org/Graphics/SVG/1.1/DTD/svg11.dtd"><svg t="1631612582391" class="icon" viewBox="0 0 1024 1024" version="1.1" xmlns="http://www.w3.org/2000/svg" p-id="2840" xmlns:xlink="http://www.w3.org/1999/xlink" width="200" height="200"><defs><style type="text/css"></style></defs><path d="M523.377778 0a113.777778 113.777778 0 0 1 113.635555 108.088889l0.142223 5.688889h150.186666C855.210667 113.777778 910.222222 166.513778 910.222222 231.537778v646.257778c0 65.024-55.011556 117.76-122.88 117.76H265.102222C197.233778 995.555556 142.222222 942.819556 142.222222 877.795556V231.537778C142.222222 166.542222 197.233778 113.777778 265.102222 113.777778H409.6a113.777778 113.777778 0 0 1 113.777778-113.777778z m0 56.888889a56.888889 56.888889 0 0 0-56.746667 52.622222L466.488889 113.777778v56.888889H265.102222c-35.356444 0-63.431111 25.457778-65.820444 56.604444L199.111111 231.537778v646.257778c0 31.630222 26.538667 58.453333 61.212445 60.728888L265.102222 938.666667h522.24c35.356444 0 63.431111-25.457778 65.820445-56.604445l0.170666-4.266666V231.537778c0-31.630222-26.538667-58.453333-61.212444-60.728889L787.342222 170.666667h-205.710222l-1.422222-59.761778A56.888889 56.888889 0 0 0 523.377778 56.888889z" fill="#00EBFC" p-id="2841"></path><path d="M624.705724 398.788905m25.141574 25.141575l0 0q25.141574 25.141574 0 50.283148l-211.189225 211.189226q-25.141574 25.141574-50.283149 0l0 0q-25.141574-25.141574 0-50.283149l211.189225-211.189225q25.141574-25.141574 50.283149 0Z" fill="#00EBFC" p-id="2842"></path><path d="M413.509867 398.791652m-25.141574 25.141574l0 0q-25.141574 25.141574 0 50.283149l211.189225 211.189226q25.141574 25.141574 50.283149 0l0 0q25.141574-25.141574 0-50.283149l-211.189225-211.189226q-25.141574-25.141574-50.283149 0Z" fill="#00EBFC" p-id="2843"></path></svg>