<?xml version="1.0" standalone="no"?><!DOCTYPE svg PUBLIC "-//W3C//DTD SVG 1.1//EN" "http://www.w3.org/Graphics/SVG/1.1/DTD/svg11.dtd"><svg t="1631612492006" class="icon" viewBox="0 0 1024 1024" version="1.1" xmlns="http://www.w3.org/2000/svg" p-id="2554" xmlns:xlink="http://www.w3.org/1999/xlink" width="200" height="200"><defs><style type="text/css"></style></defs><path d="M859.306667 56.888889H164.693333A107.804444 107.804444 0 0 0 56.888889 164.693333v694.613334A107.804444 107.804444 0 0 0 164.693333 967.111111h694.613334A107.804444 107.804444 0 0 0 967.111111 859.306667V164.693333A107.804444 107.804444 0 0 0 859.306667 56.888889zM164.693333 113.777778h694.613334c28.103111 0 50.915556 22.812444 50.915555 50.915555v694.613334A50.915556 50.915556 0 0 1 859.306667 910.222222H164.693333A50.915556 50.915556 0 0 1 113.777778 859.306667V164.693333C113.777778 136.590222 136.590222 113.777778 164.693333 113.777778z" fill="#00EBFC" p-id="2555"></path><path d="M566.414222 427.434667a10.666667 10.666667 0 0 1 11.264 0.938666c48.156444 36.209778 91.448889 3.527111 91.448889 3.527111 51.968-37.745778 27.648-92.615111 27.648-92.615111-27.249778-61.44-87.182222-47.047111-93.838222-45.226666a11.178667 11.178667 0 0 0-1.080889 0.369777c-48.782222 18.887111-53.418667 61.724444-53.390222 78.023112a10.808889 10.808889 0 0 1-5.802667 9.671111L430.648889 440.035556a10.808889 10.808889 0 0 1-11.918222-1.308445c-36.152889-30.464-76.487111-13.824-76.487111-13.824-50.915556 18.602667-50.915556 69.461333-50.915556 69.461333a77.596444 77.596444 0 0 0 52.081778 75.861334c38.001778 11.093333 63.772444-4.750222 74.040889-13.084445a10.723556 10.723556 0 0 1 11.576889-1.28l113.550222 56.888889c3.697778 1.877333 6.001778 5.717333 5.944889 9.898667-0.568889 51.285333 37.632 70.058667 37.632 70.058667 66.616889 34.076444 104.248889-25.031111 104.248889-25.031112 35.384889-57.287111-12.942222-98.787556-18.346667-103.168l-0.853333-0.682666c-44.515556-29.269333-80.952889-7.594667-93.781334 2.275555a10.695111 10.695111 0 0 1-11.320889 1.137778l-114.688-57.173333a10.752 10.752 0 0 1-5.973333-9.841778v-3.783111a10.752 10.752 0 0 1 5.859556-9.870222l115.114666-59.107556z" fill="#00EBFC" p-id="2556"></path></svg>