<?xml version="1.0" standalone="no"?><!DOCTYPE svg PUBLIC "-//W3C//DTD SVG 1.1//EN" "http://www.w3.org/Graphics/SVG/1.1/DTD/svg11.dtd"><svg t="1631612431452" class="icon" viewBox="0 0 1024 1024" version="1.1" xmlns="http://www.w3.org/2000/svg" p-id="2409" xmlns:xlink="http://www.w3.org/1999/xlink" width="200" height="200"><defs><style type="text/css"></style></defs><path d="M967.111111 233.244444H57.827556v624.924445c0 48.213333 36.579556 86.186667 84.053333 86.186667h741.205333c47.445333 0 84.024889-37.973333 84.024889-86.186667V233.244444z m-852.394667 56.888889H910.222222v568.035556c0 17.265778-11.605333 29.297778-27.136 29.297778H141.880889l-3.271111-0.170667c-13.880889-1.564444-23.893333-13.084444-23.893334-29.098667V290.133333z" fill="#00EBFC" p-id="2410"></path><path d="M409.6 476.188444c0-25.941333 21.162667-38.144 45.340444-38.144 7.566222 0 16.64 1.536 24.177778 6.115556l172.344889 100.693333a43.434667 43.434667 0 0 1 0 76.288l-172.316444 100.693334c-7.566222 4.579556-15.132444 6.115556-24.177778 6.115555-24.206222 0-45.368889-12.202667-45.368889-38.144v-213.617778zM467.740444 87.04l-269.824-2.645333C171.946667 84.110222 158.435556 115.2 176.355556 134.058667l140.828444 147.911111c5.546667 5.802667 13.255111 9.102222 21.304889 9.102222h254.122667c25.144889 0 38.684444-29.525333 22.243555-48.583111l-125.155555-145.237333a29.383111 29.383111 0 0 0-21.959112-10.183112zM266.808889 143.843556l186.993778 1.848888 74.638222 86.613334h-177.408l-84.195556-88.462222z" fill="#00EBFC" p-id="2411"></path><path d="M902.826667 292.551111l-189.098667-208.298667-321.479111 3.527112 184.234667 206.023111 326.314666-1.251556z m-214.926223-149.276444l82.602667 90.965333-167.822222 0.654222-80.298667-89.799111 165.546667-1.820444z" fill="#00EBFC" p-id="2412"></path><path d="M881.208889 84.394667h-233.813333l178.062222 206.449777 142.592 2.474667v-123.448889c0-48.156444-38.200889-85.475556-86.812445-85.475555z m-28.444445 148.110222l-77.027555-89.315556h105.500444l3.441778 0.142223c14.620444 1.479111 24.604444 12.231111 24.604445 26.567111v63.601777l-56.519112-0.995555zM406.385778 290.360889L210.033778 84.195556 141.368889 85.333333C94.065778 85.333333 56.888889 122.88 56.888889 170.837333v123.221334l349.496889-3.697778zM185.173333 143.36l85.361778 89.628444-154.908444 1.649778V170.837333c0-15.644444 11.008-26.737778 26.225777-26.737777L185.173333 143.36z" fill="#00EBFC" p-id="2413"></path></svg>