<?xml version="1.0" standalone="no"?><!DOCTYPE svg PUBLIC "-//W3C//DTD SVG 1.1//EN" "http://www.w3.org/Graphics/SVG/1.1/DTD/svg11.dtd"><svg t="1631610210376" class="icon" viewBox="0 0 1024 1024" version="1.1" xmlns="http://www.w3.org/2000/svg" p-id="2527" xmlns:xlink="http://www.w3.org/1999/xlink" width="200" height="200"><defs><style type="text/css"></style></defs><path d="M768 56.888889a113.777778 113.777778 0 0 1 113.777778 113.777778v682.666666a113.777778 113.777778 0 0 1-113.777778 113.777778H256a113.777778 113.777778 0 0 1-113.777778-113.777778V170.666667a113.777778 113.777778 0 0 1 113.777778-113.777778h512z m0 56.888889H256a56.888889 56.888889 0 0 0-56.746667 52.622222L199.111111 170.666667v682.666666a56.888889 56.888889 0 0 0 52.622222 56.746667L256 910.222222h512a56.888889 56.888889 0 0 0 56.746667-52.622222L824.888889 853.333333V170.666667a56.888889 56.888889 0 0 0-52.622222-56.746667L768 113.777778z" fill="#00EBFC" p-id="2528"></path><path d="M274.176 289.706667m28.444444 0l253.639112 0q28.444444 0 28.444444 28.444444l0 0q0 28.444444-28.444444 28.444445l-253.639112 0q-28.444444 0-28.444444-28.444445l0 0q0-28.444444 28.444444-28.444444Z" fill="#00EBFC" p-id="2529"></path><path d="M274.176 428.401778m28.444444 0l253.639112 0q28.444444 0 28.444444 28.444444l0 0q0 28.444444-28.444444 28.444445l-253.639112 0q-28.444444 0-28.444444-28.444445l0 0q0-28.444444 28.444444-28.444444Z" fill="#00EBFC" p-id="2530"></path><path d="M274.176 567.068444m28.444444 0l426.154667 0q28.444444 0 28.444445 28.444445l0 0q0 28.444444-28.444445 28.444444l-426.154667 0q-28.444444 0-28.444444-28.444444l0 0q0-28.444444 28.444444-28.444445Z" fill="#00EBFC" p-id="2531"></path></svg>