<?xml version="1.0" standalone="no"?><!DOCTYPE svg PUBLIC "-//W3C//DTD SVG 1.1//EN" "http://www.w3.org/Graphics/SVG/1.1/DTD/svg11.dtd"><svg t="1646359991433" class="icon" viewBox="0 0 1024 1024" version="1.1" xmlns="http://www.w3.org/2000/svg" p-id="3615" xmlns:xlink="http://www.w3.org/1999/xlink" width="200" height="200"><defs><style type="text/css"></style></defs><path d="M401.216 408.384a38.4 38.4 0 0 0-38.4 38.4v243.2a38.4 38.4 0 1 0 76.8 0v-243.2a38.4 38.4 0 0 0-38.4-38.4M622.784 408.384a38.4 38.4 0 0 0-38.4 38.4v243.2a38.4 38.4 0 0 0 76.8 0v-243.2a38.4 38.4 0 0 0-38.4-38.4" fill="#999999" p-id="3616"></path><path d="M857.6 200.768a38.4 38.4 0 1 1 0 76.8h-23.68c0.256 2.048 1.28 3.84 1.28 5.888v588.544a64 64 0 0 1-64 64h-512a64 64 0 0 1-64-64V283.52c0-2.112 1.024-3.84 1.152-5.888H166.4a38.4 38.4 0 0 1 0-76.8z m-100.736 76.8H273.536l-0.704 7.296-0.64 7.104-0.192 0.64v566.656h486.4V291.2l-0.832-6.336-0.704-7.296zM640 88a64 64 0 0 1 64 64l5.632 48H632.32l-4.16-35.2h-232.32l-4.16 35.2H314.368L320 152.064a64 64 0 0 1 64-64z" fill="#999999" p-id="3617"></path></svg>