<?xml version="1.0" standalone="no"?><!DOCTYPE svg PUBLIC "-//W3C//DTD SVG 1.1//EN" "http://www.w3.org/Graphics/SVG/1.1/DTD/svg11.dtd"><svg t="1631080775812" class="icon" viewBox="0 0 1024 1024" version="1.1" xmlns="http://www.w3.org/2000/svg" p-id="4545" xmlns:xlink="http://www.w3.org/1999/xlink" width="200" height="200"><defs><style type="text/css"></style></defs><path d="M512 512m-512 0a512 512 0 1 0 1024 0 512 512 0 1 0-1024 0Z" fill="#BCF9F3" p-id="4546"></path><path d="M320 259.208533h384a64 64 0 0 1 64 64v384a64 64 0 0 1-64 64h-384a64 64 0 0 1-64-64v-384a64 64 0 0 1 64-64z" fill="#40D2C4" p-id="4547"></path><path d="M704 771.208533h-384a64.068267 64.068267 0 0 1-64-64v-384a64.068267 64.068267 0 0 1 64-64h384a64.068267 64.068267 0 0 1 64 64v384a64.068267 64.068267 0 0 1-64 64zM320 307.2a16.0256 16.0256 0 0 0-16.008533 16.008533v384c0 8.8064 7.185067 15.991467 16.008533 15.991467h384c8.823467 0 16.008533-7.168 16.008533-16.008533v-384A16.0256 16.0256 0 0 0 704 307.2h-384z" fill="#40D2C4" p-id="4548"></path><path d="M512 651.1616c-13.2608 0-23.995733-10.752-23.995733-23.995733V403.4048a23.995733 23.995733 0 0 1 47.991466 0v223.744c0 13.2608-10.752 24.0128-23.995733 24.0128z m104.004267 0.017067c-13.2608 0-24.0128-10.752-24.0128-23.995734v-157.44a23.995733 23.995733 0 0 1 48.008533 0v157.44c0 13.2608-10.752 23.995733-23.995733 23.995734z m-208.008534 0c-13.243733 0-23.995733-10.752-23.995733-23.995734v-97.3312a23.995733 23.995733 0 0 1 48.008533 0v97.3312c0 13.2608-10.752 23.995733-24.0128 23.995734z" fill="#FFFFFF" p-id="4549"></path></svg>