<?xml version="1.0" standalone="no"?><!DOCTYPE svg PUBLIC "-//W3C//DTD SVG 1.1//EN" "http://www.w3.org/Graphics/SVG/1.1/DTD/svg11.dtd"><svg class="icon" width="200px" height="200.00px" viewBox="0 0 1024 1024" version="1.1" xmlns="http://www.w3.org/2000/svg"><path d="M504.685714 36.571429c17.700571 0 32.036571 16.749714 32.036572 37.302857v437.394285c0 20.553143-14.336 37.302857-32.036572 37.302858s-32.036571-16.749714-32.036571-37.302858V73.874286c0-20.553143 14.336-37.302857 32.036571-37.302857z" fill="#4063DF" /><path d="M730.697143 486.107429a40.96 40.96 0 0 1 55.149714 0c13.312 12.434286 14.994286 31.670857 4.973714 45.860571l-4.973714 5.705143-221.915428 207.36a88.210286 88.210286 0 0 1-109.933715 7.021714l-8.557714-7.021714-221.915429-207.36a34.816 34.816 0 0 1 0-51.565714 41.106286 41.106286 0 0 1 49.005715-4.681143l6.144 4.681143 221.915428 207.36c1.462857 1.462857 3.657143 1.901714 5.558857 1.462857l2.633143-1.462857L730.697143 486.107429z" fill="#4063DF" /><path d="M67.291429 566.857143c18.724571 0 34.230857 13.677714 37.449142 31.744l0.585143 6.948571v183.442286c0 72.704 54.710857 132.388571 124.489143 138.752l12.434286 0.585143h524.873143c71.387429 0 130.048-55.588571 136.338285-126.610286l0.585143-12.726857V606.427429c0-21.357714 16.969143-38.692571 38.034286-38.692572 18.651429 0 34.230857 13.677714 37.449143 31.744l0.585143 6.948572v182.564571c0 114.907429-87.917714 208.896-198.948572 216.283429l-14.043428 0.438857H242.249143c-112.932571 0-205.312-89.380571-212.553143-202.459429L29.257143 788.992V605.622857c0-21.357714 17.042286-38.692571 38.034286-38.692571z" fill="#333333" /></svg>