<?xml version="1.0" standalone="no"?><!DOCTYPE svg PUBLIC "-//W3C//DTD SVG 1.1//EN" "http://www.w3.org/Graphics/SVG/1.1/DTD/svg11.dtd"><svg t="1637740186342" class="icon" viewBox="0 0 1024 1024" version="1.1" xmlns="http://www.w3.org/2000/svg" p-id="3212" xmlns:xlink="http://www.w3.org/1999/xlink" width="200" height="200"><defs><style type="text/css"></style></defs><path d="M901.83628 926.481197a48.844735 48.844735 0 0 1-48.742335 48.708201h-682.665756a48.844735 48.844735 0 0 1-48.742335-48.708201V48.8461A48.844735 48.844735 0 0 1 170.428189 0.001365h418.815441c12.970649-0.1024 25.429299 4.98346 34.645287 14.131181l263.850315 263.918582c9.113588 9.215988 14.199448 21.674638 14.097048 34.645287v613.784782z" fill="#EBECF0" p-id="3213"></path><path d="M901.83628 926.481197v48.776468A48.844735 48.844735 0 0 1 853.093945 1024h-682.665756c-26.965297 0-48.810602-21.879437-48.810602-48.844735v-48.708202a48.844735 48.844735 0 0 0 48.742335 48.708202h682.665757a48.844735 48.844735 0 0 0 48.776468-48.810601l0.034133 0.136533z" fill="#C1C7D0" p-id="3214"></path><path d="M24.16705 536.440117h975.1539v243.848208a48.913001 48.913001 0 0 1-48.708201 48.810602H73.011785A48.844735 48.844735 0 0 1 24.16705 780.288325v-243.814075z" fill="#0AC905" p-id="3215"></path><path d="M121.719987 536.405983v-97.552936L24.16705 536.405983h97.552937z m780.116293 0l0.955732-97.552936 97.040938 97.552936h-97.962536z" fill="#168E2D" p-id="3216"></path><path d="M901.83628 312.628148v6.860791h-263.850315c-26.965297 0-48.810602-21.845304-48.810601-48.844735V0.001365c12.970649-0.1024 25.429299 4.98346 34.645287 14.131181L888.148832 277.846328c8.908788 9.352521 13.858115 21.845304 13.687448 34.747687h0.034134z" fill="#C1C7D0" p-id="3217"></path><path d="M265.216329 764.04088H136.329034v-153.941128h126.293165v35.976485H187.392433v21.742905h63.590315v35.976485H187.392433v24.268768h77.823896v35.976485z m92.842543-43.519942l-25.087967 43.519942H276.070715L330.410909 683.69112l-49.356734-73.625501h56.90019l21.742905 39.321547 22.596236-39.321547h56.866058l-52.667663 73.625501 52.701796 80.315627H382.293506l-24.268767-43.519942z m241.800211-51.882598h-47.684203c-2.252797-16.145045-11.468785-24.507701-27.647963-25.087966-18.397842 0.580266-27.852763 15.633046-28.433029 45.192473 0 27.886896 10.035187 41.847411 30.139693 41.813278 15.018647 0 23.688502-8.635722 25.941299-25.941299h48.503402c-5.563726 39.628747-30.10556 60.279386-73.625502 61.917784-52.42873-1.672531-79.462294-28.159962-81.134825-79.462294 2.764796-50.756199 28.433029-77.823896 76.970564-81.168959 46.284738 0.580266 71.918837 21.503971 76.970564 62.771117z m152.234464 95.40254H623.274518v-153.941128h126.327299v35.976485h-75.298033v21.742905h63.590315v35.976485h-63.590315v24.268768h77.823896v35.976485z m145.612605 0h-120.490506v-153.941128h51.029266v117.964643H897.706152v35.976485z" fill="#FFFFFF" p-id="3218"></path></svg>