<?xml version="1.0" standalone="no"?><!DOCTYPE svg PUBLIC "-//W3C//DTD SVG 1.1//EN" "http://www.w3.org/Graphics/SVG/1.1/DTD/svg11.dtd"><svg t="1631933776555" class="icon" viewBox="0 0 1024 1024" version="1.1" xmlns="http://www.w3.org/2000/svg" p-id="2265" xmlns:xlink="http://www.w3.org/1999/xlink" width="200" height="200"><defs><style type="text/css"></style></defs><path d="M523.264 285.013h-22.016a24.747 24.747 0 0 0-24.661 24.747v273.237c0 13.654 11.093 24.918 24.661 24.918h22.016c13.653 0 24.747-11.264 24.747-24.918V309.76a24.747 24.747 0 0 0-24.747-24.747z m-11.179-249.6A476.587 476.587 0 1 0 512 988.587a476.587 476.587 0 0 0 0-953.088z m-4.352 893.782a414.72 414.72 0 1 1 0-829.355 414.635 414.635 0 1 1 0 829.44z m14.08-234.923h-20.565a24.747 24.747 0 0 0-24.661 25.003v25.856c0 13.653 11.093 24.917 24.661 24.917h20.65c13.654 0 24.747-11.179 24.747-24.917V719.36a24.747 24.747 0 0 0-24.746-25.003z" p-id="2266"></path></svg>