<?xml version="1.0" standalone="no"?><!DOCTYPE svg PUBLIC "-//W3C//DTD SVG 1.1//EN" "http://www.w3.org/Graphics/SVG/1.1/DTD/svg11.dtd"><svg class="icon" width="200px" height="200.00px" viewBox="0 0 1024 1024" version="1.1" xmlns="http://www.w3.org/2000/svg"><path d="M168.530711 212.40094a42.129112 42.129112 0 0 1 59.536627 59.536627 391.230244 391.230244 0 1 0 553.23716 0 42.129112 42.129112 0 0 1 59.536627-59.536627 475.415328 475.415328 0 1 1-672.310414 0z" fill="#333333" /><path d="M468.115508 73.14082m36.57041 0l0 0q36.57041 0 36.57041 36.570409l0 511.985738q0 36.57041-36.57041 36.57041l0 0q-36.57041 0-36.57041-36.57041l0-511.985738q0-36.57041 36.57041-36.570409Z" fill="#4063DF" /></svg>