<?xml version="1.0" standalone="no"?><!DOCTYPE svg PUBLIC "-//W3C//DTD SVG 1.1//EN" "http://www.w3.org/Graphics/SVG/1.1/DTD/svg11.dtd"><svg t="1649312095518" class="icon" viewBox="0 0 1024 1024" version="1.1" xmlns="http://www.w3.org/2000/svg" p-id="4379" xmlns:xlink="http://www.w3.org/1999/xlink" width="200" height="200"><defs><style type="text/css">@font-face { font-family: feedback-iconfont; src: url("//at.alicdn.com/t/font_1031158_u69w8yhxdu.woff2?t=1630033759944") format("woff2"), url("//at.alicdn.com/t/font_1031158_u69w8yhxdu.woff?t=1630033759944") format("woff"), url("//at.alicdn.com/t/font_1031158_u69w8yhxdu.ttf?t=1630033759944") format("truetype"); }
</style></defs><path d="M512 512m-512 0a512 512 0 1 0 1024 0 512 512 0 1 0-1024 0Z" fill="#666666" p-id="4380"></path><path d="M715.52 308.288a28.8 28.8 0 0 1 0 40.704L349.056 715.52a28.736 28.736 0 1 1-40.704-40.64l366.528-366.592a28.8 28.8 0 0 1 40.768 0" fill="#FFFFFF" p-id="4381"></path><path d="M715.52 715.52a28.8 28.8 0 0 1-40.704 0L308.288 348.928a28.736 28.736 0 1 1 40.704-40.64l366.592 366.528a28.8 28.8 0 0 1 0 40.704" fill="#FFFFFF" p-id="4382"></path></svg>