<?xml version="1.0" standalone="no"?><!DOCTYPE svg PUBLIC "-//W3C//DTD SVG 1.1//EN" "http://www.w3.org/Graphics/SVG/1.1/DTD/svg11.dtd"><svg class="icon" width="200px" height="200.00px" viewBox="0 0 1024 1024" version="1.1" xmlns="http://www.w3.org/2000/svg"><path d="M512 512m-512 0a512 512 0 1 0 1024 0 512 512 0 1 0-1024 0Z" fill="#FFE4BE" /><path d="M273.066667 712.1408c0 18.466133 13.994667 32.597333 32.273066 32.597333H735.744c18.2784 0 32.273067-14.1312 32.273067-32.597333V375.466667H273.066667v336.674133z" fill="#FF9B3A" /><path d="M460.8 482.952533c0-15.069867 12.288-22.152533 26.333867-22.152533 4.386133 0 9.659733 0.887467 14.045866 3.549867l100.061867 58.4704a25.207467 25.207467 0 0 1 0 44.288l-100.061867 58.487466c-4.386133 2.645333-8.789333 3.5328-14.045866 3.5328-14.045867 0-26.333867-7.082667-26.333867-22.135466v-124.040534z" fill="#FFFFFF" /><path d="M489.284267 359.936L416.119467 273.066667H333.2608l73.1648 86.869333zM704.3584 359.936L631.1936 273.066667H548.352l73.1648 86.869333zM596.821333 359.936L523.656533 273.066667h-82.8416l73.1648 86.869333zM735.522133 273.066667H655.872l73.1648 86.869333h38.741333V305.664c0-18.4832-13.994667-32.597333-32.273066-32.597333zM305.339733 273.066667C287.061333 273.066667 273.066667 287.1808 273.066667 305.664v54.272h108.663466L308.565333 273.066667h-3.2256z" fill="#FFA34B" /></svg>