<?xml version="1.0" standalone="no"?><!DOCTYPE svg PUBLIC "-//W3C//DTD SVG 1.1//EN" "http://www.w3.org/Graphics/SVG/1.1/DTD/svg11.dtd"><svg t="1646362918492" class="icon" viewBox="0 0 1024 1024" version="1.1" xmlns="http://www.w3.org/2000/svg" p-id="6132" xmlns:xlink="http://www.w3.org/1999/xlink" width="200" height="200"><defs><style type="text/css"></style></defs><path d="M899.712 118.592a31.68 31.68 0 0 0-31.424-8.128L134.912 369.792a32 32 0 0 0-13.824 53.376l169.088 168.96 0.192-0.128a38.4 38.4 0 0 0 53.888-54.528c-0.192-0.192-0.448-0.256-0.64-0.384L229.312 422.656l492.288-186.56-416.064 416.256c-52.48 52.48-36.544 157.056-34.624 168.832a38.4 38.4 0 1 0 75.712-12.8c-4.992-30.592-4.288-84.224 13.184-101.76l428.608-428.672L590.72 784l-110.464-110.464h-0.064l-0.32-0.384a38.4 38.4 0 0 0-54.272 54.272c0.128 0.192 0.32 0.192 0.512 0.32l-0.128 0.128 164.288 164.224a32 32 0 0 0 53.376-13.888l264.128-728.192a31.616 31.616 0 0 0-8.128-31.424" fill="#999999" p-id="6133"></path></svg>