<?xml version="1.0" standalone="no"?><!DOCTYPE svg PUBLIC "-//W3C//DTD SVG 1.1//EN" "http://www.w3.org/Graphics/SVG/1.1/DTD/svg11.dtd"><svg class="icon" width="200px" height="200.00px" viewBox="0 0 1024 1024" version="1.1" xmlns="http://www.w3.org/2000/svg"><path d="M757.613714 425.325714c94.939429 0 171.885714 75.995429 171.885715 169.691429v254.537143c0 93.622857-76.946286 169.618286-171.885715 169.618285H274.285714c-94.939429 0-171.885714-75.995429-171.885714-169.691428v-254.537143c0-93.622857 76.946286-169.618286 171.885714-169.618286h483.328z m0 67.876572H274.285714c-53.394286 0-97.28 40.082286-102.619428 91.428571l-0.512 10.386286v254.537143c0 52.662857 40.594286 95.963429 92.598857 101.229714l10.532571 0.512h483.328c53.394286 0 97.28-40.082286 102.619429-91.428571l0.512-10.386286v-254.537143c0-52.662857-40.594286-95.963429-92.598857-101.229714l-10.532572-0.512z" fill="#333333" /><path d="M515.949714 50.907429c164.278857 0 297.545143 131.510857 297.545143 293.741714 0 18.724571-15.36 33.865143-34.377143 33.865143a34.157714 34.157714 0 0 1-34.377143-33.865143c0-124.781714-102.4-225.865143-228.790857-225.865143-121.490286 0-220.891429 93.476571-228.352 211.529143l-0.438857 14.336v111.323428c0 18.724571-15.36 33.938286-34.377143 33.938286a34.304 34.304 0 0 1-33.645714-27.062857l-0.731429-6.875429V344.649143c0-162.230857 133.193143-293.741714 297.545143-293.741714z" fill="#333333" /><path d="M478.354286 575.049143m37.595428 0l0 0q37.595429 0 37.595429 37.595428l0 221.696q0 37.595429-37.595429 37.595429l0 0q-37.595429 0-37.595428-37.595429l0-221.696q0-37.595429 37.595428-37.595428Z" fill="#4063DF" /></svg>