<?xml version="1.0" encoding="UTF-8"?>
<svg width="26px" height="26px" viewBox="0 0 26 26" version="1.1" xmlns="http://www.w3.org/2000/svg" xmlns:xlink="http://www.w3.org/1999/xlink">
    <g id="v1.1.0" stroke="none" stroke-width="1" fill="none" fill-rule="evenodd">
        <g id="创意消耗排行" transform="translate(-445.000000, -356.000000)">
            <g id="消耗排行卡片" transform="translate(32.000000, 256.000000)">
                <g id="xiaohaopaihang_button_pause" transform="translate(413.000000, 100.000000)">
                    <rect id="矩形" fill="#000000" fill-rule="nonzero" opacity="0" x="1" y="1" width="24" height="24"></rect>
                    <g id="编组" transform="translate(1.000000, 1.000000)" fill-rule="nonzero" stroke="#FFFFFF" stroke-opacity="0.8">
                        <circle id="椭圆形" cx="12" cy="12" r="12"></circle>
                    </g>
                    <g id="编组-19" transform="translate(10.000000, 10.000000)" fill="#FFFFFF">
                        <path d="M0.81818182,-2.22044605e-15 C0.366312478,-2.22044605e-15 3.4139358e-13,0.366312478 3.4139358e-13,0.81818182 L3.4139358e-13,5.72727274 C7.64700961e-05,6.179088 0.366366545,6.54531608 0.818181809,6.54531608 C1.26999707,6.54531608 1.63628715,6.179088 1.63636362,5.72727274 L1.63636362,0.81818182 C1.63636362,0.366312488 1.27005115,-2.22044605e-15 0.81818182,-2.22044605e-15 L0.81818182,-2.22044605e-15 Z" id="路径"></path>
                        <path d="M5.18181818,1.33226763e-14 C4.72994884,1.33226763e-14 4.36363636,0.366312478 4.36363636,0.81818182 L4.36363636,5.72727274 C4.36363636,6.17914208 4.72994884,6.54545456 5.18181818,6.54545456 C5.63368752,6.54545456 6,6.17914208 6,5.72727274 L6,0.81818182 C6,0.366312478 5.63368752,1.33226763e-14 5.18181818,1.33226763e-14 L5.18181818,1.33226763e-14 Z" id="路径"></path>
                    </g>
                </g>
            </g>
        </g>
    </g>
</svg>