<?xml version="1.0" standalone="no"?><!DOCTYPE svg PUBLIC "-//W3C//DTD SVG 1.1//EN" "http://www.w3.org/Graphics/SVG/1.1/DTD/svg11.dtd"><svg class="icon" width="200px" height="186.69px" viewBox="0 0 1097 1024" version="1.1" xmlns="http://www.w3.org/2000/svg"><path d="M815.542857 0a175.542857 175.542857 0 0 1 175.542857 175.542857v672.914286a175.542857 175.542857 0 0 1-175.542857 175.542857H321.828571A175.542857 175.542857 0 0 1 146.285714 848.457143V175.542857A175.542857 175.542857 0 0 1 321.828571 0h493.714286z m0 70.217143H321.828571a105.325714 105.325714 0 0 0-104.813714 94.573714L216.502857 175.542857v672.914286a105.325714 105.325714 0 0 0 94.573714 104.813714l10.752 0.512h493.714286a105.325714 105.325714 0 0 0 104.813714-94.573714l0.512-10.752V175.542857A105.325714 105.325714 0 0 0 826.294857 70.729143L815.542857 70.217143z" fill="#333333" /><path d="M388.973714 256c0-21.211429 17.188571-38.4 38.4-38.4h230.4a38.4 38.4 0 0 1 0 76.8h-230.4a38.4 38.4 0 0 1-38.4-38.4zM389.485714 486.4c0-21.211429 17.188571-38.4 38.4-38.4h332.8a38.4 38.4 0 0 1 0 76.8H427.885714a38.4 38.4 0 0 1-38.4-38.4zM389.485714 716.8c0-21.211429 17.188571-38.4 38.4-38.4h332.8a38.4 38.4 0 1 1 0 76.8H427.885714a38.4 38.4 0 0 1-38.4-38.4z" fill="#4063DF" /></svg>