<?xml version="1.0" standalone="no"?><!DOCTYPE svg PUBLIC "-//W3C//DTD SVG 1.1//EN" "http://www.w3.org/Graphics/SVG/1.1/DTD/svg11.dtd"><svg t="1631254412990" class="icon" viewBox="0 0 1024 1024" version="1.1" xmlns="http://www.w3.org/2000/svg" p-id="2173" xmlns:xlink="http://www.w3.org/1999/xlink" width="200" height="200"><defs><style type="text/css"></style></defs><path d="M219.428571 146.285714h585.142858a146.285714 146.285714 0 0 1 146.285714 146.285715v585.142857a146.285714 146.285714 0 0 1-146.285714 146.285714H219.428571a146.285714 146.285714 0 0 1-146.285714-146.285714V292.571429a146.285714 146.285714 0 0 1 146.285714-146.285715z m414.500572 365.714286v243.785143a48.786286 48.786286 0 1 0 97.499428 0V512a48.786286 48.786286 0 0 0-97.499428 0zM438.857143 560.786286v194.998857a48.786286 48.786286 0 1 0 97.499428 0V560.786286a48.786286 48.786286 0 1 0-97.499428 0zM292.571429 390.070857A48.786286 48.786286 0 0 0 243.785143 438.857143v316.928a48.786286 48.786286 0 1 0 97.572571 0V438.857143A48.786286 48.786286 0 0 0 292.571429 390.070857z" fill="#4063DF" p-id="2174"></path></svg>