<?xml version="1.0" standalone="no"?><!DOCTYPE svg PUBLIC "-//W3C//DTD SVG 1.1//EN" "http://www.w3.org/Graphics/SVG/1.1/DTD/svg11.dtd"><svg t="1639391413008" class="icon" viewBox="0 0 1024 1024" version="1.1" xmlns="http://www.w3.org/2000/svg" p-id="3394" xmlns:xlink="http://www.w3.org/1999/xlink" width="200" height="200"><defs><style type="text/css"></style></defs><path d="M512 64a448 448 0 1 0 0 896A448 448 0 0 0 512 64.073143z m0 819.931429a372.077714 372.077714 0 1 1 0.146286-744.082286A372.077714 372.077714 0 0 1 512 884.004571z" fill="#666666" p-id="3395"></path><path d="M623.616 316.708571A168.594286 168.594286 0 0 0 512 275.968c-41.984 0-81.627429 14.555429-111.616 40.740571a136.338286 136.338286 0 0 0-48.420571 103.277715v7.606857c0 4.388571 3.657143 8.045714 8.045714 8.045714h47.981714c4.388571 0 8.045714-3.657143 8.045714-8.045714v-7.606857c0-44.105143 43.081143-80.018286 95.963429-80.018286 52.882286 0 96.036571 35.913143 96.036571 80.018286 0 31.085714-22.016 59.611429-56.100571 72.704a111.762286 111.762286 0 0 0-72.045714 105.837714v21.504c0 4.388571 3.657143 7.972571 8.045714 7.972571h47.981714c4.388571 0 8.045714-3.657143 8.045715-8.045714v-22.674286c0-19.748571 12.361143-37.668571 30.866285-44.763428 58.953143-22.674286 97.060571-74.752 97.060572-132.534857a135.899429 135.899429 0 0 0-48.274286-103.277715zM471.990857 732.013714a40.009143 40.009143 0 1 0 80.018286 0 40.009143 40.009143 0 0 0-80.018286 0z" fill="#666666" p-id="3396"></path></svg>