<?xml version="1.0" standalone="no"?><!DOCTYPE svg PUBLIC "-//W3C//DTD SVG 1.1//EN" "http://www.w3.org/Graphics/SVG/1.1/DTD/svg11.dtd"><svg t="1631080877564" class="icon" viewBox="0 0 1024 1024" version="1.1" xmlns="http://www.w3.org/2000/svg" p-id="4842" xmlns:xlink="http://www.w3.org/1999/xlink" width="200" height="200"><defs><style type="text/css"></style></defs><path d="M612.205714 173.860571c28.745143 4.315429 53.028571 22.674286 62.171429 49.664 7.606857 24.137143 25.819429 45.348571 49.956571 58.148572 24.283429 12.8 51.492571 17.042286 78.848 11.337143 28.745143-5.705143 59.099429 4.315429 75.776 25.6 21.211429 29.842286 40.96 59.611429 54.491429 92.16a69.339429 69.339429 0 0 1-9.069714 68.315428l-6.070858 6.948572a98.889143 98.889143 0 0 0-7.021714 130.852571l7.021714 8.192c19.748571 19.894857 25.819429 49.664 15.140572 75.190857a356.059429 356.059429 0 0 1-56.027429 90.843429c-16.164571 18.944-41.910857 28.818286-66.56 26.843428l-9.216-1.316571a117.028571 117.028571 0 0 0-78.774857 11.337143c-20.845714 10.971429-36.059429 28.16-45.641143 48.054857l-4.388571 10.166857c-9.142857 26.916571-33.28 45.348571-62.171429 49.590857-18.139429 1.462857-37.814857 2.925714-56.027428 2.925715-18.139429 0-37.888-1.462857-56.027429-4.388572-28.818286-4.242286-53.028571-22.674286-62.171428-49.590857-15.652571-47.835429-65.828571-77.019429-118.272-71.168l-10.532572 1.682286a78.994286 78.994286 0 0 1-75.776-25.6 380.928 380.928 0 0 1-56.027428-90.770286 69.339429 69.339429 0 0 1 9.069714-68.242286l6.070857-7.021714a98.889143 98.889143 0 0 0 7.021714-130.779429l-7.021714-8.192a69.485714 69.485714 0 0 1-15.140571-75.264c13.604571-32.621714 33.28-63.780571 56.027428-90.770285a81.188571 81.188571 0 0 1 67.657143-26.916572l9.654857 1.316572c27.282286 5.705143 54.564571 1.462857 78.774857-11.337143 20.845714-10.898286 36.059429-28.086857 45.641143-47.981714l4.388572-10.24c9.142857-26.843429 33.28-45.348571 62.171428-49.590858a491.812571 491.812571 0 0 1 112.054857 0z m-99.693714 59.684572c-6.070857 1.462857-10.459429 4.242286-11.995429 9.728a153.819429 153.819429 0 0 1-76.507428 89.380571 180.662857 180.662857 0 0 1-121.270857 16.822857 17.334857 17.334857 0 0 0-14.994286 4.169143 340.333714 340.333714 0 0 0-47.908571 75.410286c-1.462857 5.632-1.462857 11.190857 2.998857 15.36 58.514286 60.123429 58.514286 152.210286 0 212.333714-4.534857 4.169143-4.534857 9.728-2.998857 13.897143 11.922286 27.940571 28.452571 53.101714 46.372571 75.483429 3.072 4.169143 10.459429 5.558857 14.994286 5.558857 85.357714-18.139429 170.788571 29.257143 197.778285 106.130286 1.462857 5.632 5.997714 8.411429 11.922286 9.801142 14.994286 1.389714 31.451429 2.779429 46.445714 2.779429 16.457143 0 31.451429-1.462857 47.908572-2.779429 5.997714-1.462857 10.459429-4.242286 11.922286-9.801142a153.6 153.6 0 0 1 76.434285-89.380572 180.662857 180.662857 0 0 1 121.344-16.749714c5.997714 1.462857 11.922286-1.389714 14.921143-4.169143 19.529143-23.771429 35.986286-48.859429 47.908572-75.483429 1.462857-4.169143 1.462857-11.117714-2.925715-15.36a150.454857 150.454857 0 0 1 0-212.260571c4.681143-4.169143 4.681143-9.728 3.218286-15.36a312.32 312.32 0 0 0-47.981714-75.410286c-2.925714-4.242286-8.996571-5.632-14.921143-4.242285a177.810286 177.810286 0 0 1-119.954286-16.749715 154.770286 154.770286 0 0 1-71.826286-77.019428l-4.534857-12.361143a12.8 12.8 0 0 0-8.557714-9.216l-3.437714-0.512a354.596571 354.596571 0 0 0-94.354286 0z" fill="#333333" p-id="4843"></path><path d="M548.571429 402.285714a146.285714 146.285714 0 1 1 0 292.571429 146.285714 146.285714 0 0 1 0-292.571429z m0 58.514286a87.771429 87.771429 0 1 0 0 175.542857 87.771429 87.771429 0 0 0 0-175.542857z" fill="#2B4DFF" p-id="4844"></path></svg>