<?xml version="1.0" standalone="no"?><!DOCTYPE svg PUBLIC "-//W3C//DTD SVG 1.1//EN" "http://www.w3.org/Graphics/SVG/1.1/DTD/svg11.dtd"><svg t="1646360277699" class="icon" viewBox="0 0 1024 1024" version="1.1" xmlns="http://www.w3.org/2000/svg" p-id="4022" xmlns:xlink="http://www.w3.org/1999/xlink" width="200" height="200"><defs><style type="text/css"></style></defs><path d="M800 96a128 128 0 1 1-99.904 208L365.056 427.392c12.096 22.464 18.944 48.192 18.944 75.52 0 28.608-7.488 55.424-20.608 78.656l352.704 121.728a128 128 0 1 1-40.704 67.2l-372.224-128.448A160 160 0 1 1 307.84 366.72l364.416-134.336L672 224c0-67.456 52.224-122.752 118.4-127.68z m0 652.8a51.264 51.264 0 0 0 0 102.4 51.264 51.264 0 0 0 0-102.4z m-576-328.96a83.264 83.264 0 0 0 0 166.4 83.264 83.264 0 0 0 0-166.4z m576-247.04a51.264 51.264 0 0 0 0 102.4 51.264 51.264 0 0 0 0-102.4z" fill="#999999" p-id="4023"></path></svg>