<?xml version="1.0" standalone="no"?><!DOCTYPE svg PUBLIC "-//W3C//DTD SVG 1.1//EN" "http://www.w3.org/Graphics/SVG/1.1/DTD/svg11.dtd"><svg t="1631255143189" class="icon" viewBox="0 0 1024 1024" version="1.1" xmlns="http://www.w3.org/2000/svg" p-id="2305" xmlns:xlink="http://www.w3.org/1999/xlink" width="200" height="200"><defs><style type="text/css"></style></defs><path d="M1023.417 750.165c0 51.2-20.48 61.44-98.816 61.44-20.48-197.802-119.466-293.29-221.696-340.992 68.267-92.16 71.68-225.109 6.827-324.01 78.507-23.894 160.256 30.72 180.736 115.968 17.067 75.093-17.067 156.842-85.333 187.562 129.706 34.134 218.282 156.843 218.282 300.032z m-419.413-262.57c126.208 27.306 272.81 116.053 272.81 371.712 0 68.266-85.247 68.266-361.471 68.266-279.638 0-361.472 0-361.472-68.266 0-252.331 146.688-344.406 272.81-371.712-98.901-54.528-132.95-180.736-85.248-282.966 47.787-102.4 167.083-139.861 259.158-85.333 92.16 54.613 129.62 180.821 78.506 279.637-17.066 40.96-44.373 68.267-75.093 88.747z m-283.05-17.067c-102.23 47.787-201.131 146.688-221.611 341.077-78.507 0-98.902-10.24-98.902-61.44-6.826-143.189 85.334-269.397 214.87-300.032-75.094-37.546-109.142-129.621-75.094-211.456 30.72-71.594 102.4-109.056 173.995-88.661-64.853 95.573-61.44 225.11 6.827 320.597z" fill="#ffffff" p-id="2306"></path></svg>