<?xml version="1.0" standalone="no"?><!DOCTYPE svg PUBLIC "-//W3C//DTD SVG 1.1//EN" "http://www.w3.org/Graphics/SVG/1.1/DTD/svg11.dtd"><svg class="icon" width="200px" height="200.00px" viewBox="0 0 1024 1024" version="1.1" xmlns="http://www.w3.org/2000/svg"><path d="M512 512m-512 0a512 512 0 1 0 1024 0 512 512 0 1 0-1024 0Z" fill="#FFD6D5" /><path d="M357.5808 290.133333h286.651733C681.489067 290.133333 711.68 319.163733 711.68 354.986667v372.906666c0 35.822933-30.208 64.853333-67.447467 64.853334H357.5808C320.324267 792.746667 290.133333 763.716267 290.133333 727.893333V354.986667C290.133333 319.163733 320.341333 290.133333 357.5808 290.133333z" fill="#FF6D6B" /><path d="M495.786667 286.72m-64.853334 0a64.853333 64.853333 0 1 0 129.706667 0 64.853333 64.853333 0 1 0-129.706667 0Z" fill="#FF6D6B" /><path d="M494.933333 259.413333c9.386667 0 17.066667 7.68 17.066667 17.066667s-7.68 17.066667-17.066667 17.066667-17.066667-7.68-17.066666-17.066667 7.68-17.066667 17.066666-17.066667z" fill="#FFD6D5" /><path d="M569.840423 443.55571m18.101934 18.101933l0 0q18.101934 18.101934 0 36.203867l-132.747513 132.747513q-18.101934 18.101934-36.203867 0l0 0q-18.101934-18.101934 0-36.203867l132.747513-132.747513q18.101934-18.101934 36.203867 0Z" fill="#FFFFFF" /><path d="M437.088226 443.55765m-18.101934 18.101933l0 0q-18.101934 18.101934 0 36.203868l132.747513 132.747513q18.101934 18.101934 36.203868 0l0 0q18.101934-18.101934 0-36.203867l-132.747514-132.747514q-18.101934-18.101934-36.203867 0Z" fill="#FFFFFF" /></svg>