<?xml version="1.0" standalone="no"?><!DOCTYPE svg PUBLIC "-//W3C//DTD SVG 1.1//EN" "http://www.w3.org/Graphics/SVG/1.1/DTD/svg11.dtd"><svg t="1635149188400" class="icon" viewBox="0 0 1024 1024" version="1.1" xmlns="http://www.w3.org/2000/svg" p-id="2458" xmlns:xlink="http://www.w3.org/1999/xlink" width="200" height="200"><defs><style type="text/css"></style></defs><path d="M512 512m-512 0a512 512 0 1 0 1024 0 512 512 0 1 0-1024 0Z" fill="#FFD8C7" p-id="2459"></path><path d="M706.491733 750.933333H317.508267A44.4416 44.4416 0 0 1 273.066667 706.491733V317.508267A44.4416 44.4416 0 0 1 317.508267 273.066667h388.983466A44.4416 44.4416 0 0 1 750.933333 317.508267v388.983466A44.4416 44.4416 0 0 1 706.491733 750.933333z" fill="#FE763B" p-id="2460"></path><path d="M558.523733 462.557867a7.441067 7.441067 0 0 1 7.850667 0.6656c33.467733 25.105067 63.5904 2.440533 63.5904 2.440533 36.164267-26.180267 19.2512-64.2048 19.2512-64.2048-18.978133-42.615467-60.654933-32.631467-65.28-31.368533a7.7824 7.7824 0 0 0-0.750933 0.256c-33.928533 13.1072-37.1712 42.820267-37.137067 54.101333a7.492267 7.492267 0 0 1-4.0448 6.7072l-77.909333 40.123733a7.5264 7.5264 0 0 1-8.2944-0.904533c-25.1392-21.111467-53.1968-9.591467-53.1968-9.591467-35.4304 12.9024-35.4304 48.162133-35.4304 48.162134 0 41.9328 36.2496 52.616533 36.2496 52.616533 26.4192 7.68 44.356267-3.310933 51.490133-9.096533a7.4752 7.4752 0 0 1 8.055467-0.8704l78.967466 39.458133a7.509333 7.509333 0 0 1 4.130134 6.826667c-0.392533 35.566933 26.197333 48.5888 26.197333 48.5888 46.336 23.620267 72.516267-17.339733 72.516267-17.339734 24.610133-39.7312-9.0112-68.5056-12.782934-71.543466l-0.597333-0.4608c-30.941867-20.309333-56.285867-5.290667-65.2288 1.5872a7.4752 7.4752 0 0 1-7.850667 0.750933L478.549333 519.850667a7.458133 7.458133 0 0 1-4.1472-6.826667v-2.628267a7.441067 7.441067 0 0 1 4.061867-6.843733l80.059733-40.994133z" fill="#FFFFFF" p-id="2461"></path></svg>