<?xml version="1.0" standalone="no"?><!DOCTYPE svg PUBLIC "-//W3C//DTD SVG 1.1//EN" "http://www.w3.org/Graphics/SVG/1.1/DTD/svg11.dtd"><svg class="icon" width="200px" height="200.00px" viewBox="0 0 1024 1024" version="1.1" xmlns="http://www.w3.org/2000/svg"><path d="M512 512m-512 0a512 512 0 1 0 1024 0 512 512 0 1 0-1024 0Z" fill="#C6EEFF" /><path d="M585.608533 495.2064h164.727467V670.037333a101.154133 101.154133 0 0 1-101.154133 101.137067h-63.573334V495.223467z" fill="#5ECBFF" /><path d="M320 259.208533h249.6a64 64 0 0 1 64 64v448H320a64 64 0 0 1-64-64v-384a64 64 0 0 1 64-64z" fill="#36BEFF" /><path d="M585.608533 771.208533H320a64.068267 64.068267 0 0 1-64-64v-384a64.068267 64.068267 0 0 1 64-64h249.6a64.068267 64.068267 0 0 1 64 64v399.991467a48.059733 48.059733 0 0 1-48.008533 48.008533zM320 307.2a16.0256 16.0256 0 0 0-16.008533 16.008533v384c0 8.8064 7.185067 15.991467 16.008533 15.991467h265.6256l-0.017067-400.008533a16.0256 16.0256 0 0 0-16.008533-15.991467H320z" fill="#36BEFF" /><path d="M535.995733 425.608533H353.621333a23.995733 23.995733 0 0 1 0-48.008533h182.391467a23.995733 23.995733 0 0 1 0 48.008533z m-91.1872 89.6h-91.204266a23.995733 23.995733 0 0 1 0-48.008533h91.1872a23.995733 23.995733 0 0 1 0 48.008533z" fill="#FFFFFF" /></svg>