<?xml version="1.0" standalone="no"?><!DOCTYPE svg PUBLIC "-//W3C//DTD SVG 1.1//EN" "http://www.w3.org/Graphics/SVG/1.1/DTD/svg11.dtd"><svg t="1631080448556" class="icon" viewBox="0 0 1024 1024" version="1.1" xmlns="http://www.w3.org/2000/svg" p-id="3507" xmlns:xlink="http://www.w3.org/1999/xlink" width="200" height="200"><defs><style type="text/css"></style></defs><path d="M512 512m-512 0a512 512 0 1 0 1024 0 512 512 0 1 0-1024 0Z" fill="#D4DBFF" p-id="3508"></path><path d="M374.647467 293.546667h286.651733C698.555733 293.546667 728.746667 322.577067 728.746667 358.4v372.906667c0 35.822933-30.208 64.853333-67.447467 64.853333H374.647467C337.390933 796.16 307.2 767.1296 307.2 731.306667V358.4c0-35.822933 30.208-64.853333 67.447467-64.853333z" fill="#6680FF" p-id="3509"></path><path d="M512.853333 286.72m-64.853333 0a64.853333 64.853333 0 1 0 129.706667 0 64.853333 64.853333 0 1 0-129.706667 0Z" fill="#6680FF" p-id="3510"></path><path d="M512 259.413333c9.386667 0 17.066667 7.68 17.066667 17.066667s-7.68 17.066667-17.066667 17.066667-17.066667-7.68-17.066667-17.066667 7.68-17.066667 17.066667-17.066667z" fill="#D4DBFF" p-id="3511"></path><path d="M524.509867 597.2992l-28.8768 28.893867-28.893867-28.893867-56.746667-57.2416 28.893867-28.8768 57.2416 57.2416 129.194667-129.194667 28.893866 28.8768z" fill="#FFFFFF" p-id="3512"></path></svg>